<svg xml:space="preserve" style="enable-background:new 0 0 1600 950;" viewBox="0 0 1600 950" y="0px" x="0px" xmlns:xlink="http://www.w3.org/1999/xlink" xmlns="http://www.w3.org/2000/svg" id="Layer_1" version="1.1">
<style type="text/css">
	.st0{fill:#4ADBC8;stroke:#000000;stroke-width:2;stroke-linecap:round;stroke-linejoin:round;stroke-miterlimit:10;}
	.st1{fill:#00FFC2;stroke:#000000;stroke-width:2;stroke-linecap:round;stroke-linejoin:round;stroke-miterlimit:10;}
	.st2{fill:#FB6612;stroke:#000000;stroke-width:2;stroke-linecap:round;stroke-linejoin:round;stroke-miterlimit:10;}
	.st3{fill:#EFFF36;stroke:#000000;stroke-width:2;stroke-linecap:round;stroke-linejoin:round;stroke-miterlimit:10;}
	.st4{fill:#CEFF1A;stroke:#000000;stroke-width:2;stroke-linecap:round;stroke-linejoin:round;stroke-miterlimit:10;}
	.st5{fill:#DAF464;stroke:#000000;stroke-width:2;stroke-linecap:round;stroke-linejoin:round;stroke-miterlimit:10;}
	.st6{fill:#9F87F4;stroke:#000000;stroke-width:2;stroke-linecap:round;stroke-linejoin:round;stroke-miterlimit:10;}
	.st7{fill:#F2F5F2;stroke:#000000;stroke-width:2;stroke-linecap:round;stroke-linejoin:round;stroke-miterlimit:10;}
	.st8{fill:none;stroke:#000000;stroke-width:2;stroke-linecap:round;stroke-linejoin:round;stroke-miterlimit:10;}
	.st9{fill:#545867;stroke:#545867;stroke-width:2;stroke-linecap:round;stroke-linejoin:round;stroke-miterlimit:10;}
	.st10{fill:#F2A3D8;stroke:#000000;stroke-width:2;stroke-linecap:round;stroke-linejoin:round;stroke-miterlimit:10;}
	.st11{fill:none;stroke:#FFFFFF;stroke-width:2;stroke-linecap:round;stroke-linejoin:round;stroke-miterlimit:10;}
	.st12{fill:#4ADBC8;stroke:#FFFFFF;stroke-width:2;stroke-linecap:round;stroke-linejoin:round;stroke-miterlimit:10;}
	.st13{fill:#6637EE;stroke:#000000;stroke-width:2;stroke-linecap:round;stroke-linejoin:round;stroke-miterlimit:10;}
	.st14{fill:#CCCCCC;stroke:#000000;stroke-width:2;stroke-linecap:round;stroke-linejoin:round;stroke-miterlimit:10;}
	.st15{stroke:#000000;stroke-width:2;stroke-linecap:round;stroke-linejoin:round;stroke-miterlimit:10.0001;}
	.st16{fill:#EFFF36;stroke:#000000;stroke-width:2;stroke-linecap:round;stroke-linejoin:round;stroke-miterlimit:10.0002;}
	.st17{fill:#9F87F4;stroke:#000000;stroke-width:2.0001;stroke-linecap:round;stroke-linejoin:round;stroke-miterlimit:10.0003;}
	.st18{fill:#FF9431;stroke:#000000;stroke-width:2;stroke-linecap:round;stroke-linejoin:round;stroke-miterlimit:10;}
	.st19{stroke:#000000;stroke-width:2;stroke-linecap:round;stroke-linejoin:round;stroke-miterlimit:10;}
	.st20{fill:#EFFF36;stroke:#000000;stroke-width:2.1559;stroke-linecap:round;stroke-linejoin:round;stroke-miterlimit:10;}
	.st21{fill:#FFFFFF;stroke:#000000;stroke-width:2;stroke-linecap:round;stroke-linejoin:round;stroke-miterlimit:10;}
	.st22{fill:#FB4712;stroke:#000000;stroke-width:2;stroke-linecap:round;stroke-linejoin:round;stroke-miterlimit:10;}
	.st23{fill:#FFBE57;stroke:#000000;stroke-width:2;stroke-linecap:round;stroke-linejoin:round;stroke-miterlimit:10;}
	.st24{fill:#6637EE;stroke:#000000;stroke-width:2;stroke-linecap:round;stroke-linejoin:round;stroke-miterlimit:10.0001;}
	.st25{fill:none;stroke:#FFFFFF;stroke-width:4;stroke-linecap:round;stroke-linejoin:round;stroke-miterlimit:10;}
	.st26{fill:none;stroke:#FFFFFF;stroke-width:3;stroke-linecap:round;stroke-linejoin:round;stroke-miterlimit:10;}
</style>
<g>
	<path d="M572.98,791.83c-24.72,0-49.45-6.37-71.5-19.1L287.36,649.11c-2.87-1.66-3.85-5.33-2.2-8.2
		c1.66-2.87,5.32-3.85,8.2-2.2l214.12,123.62c40.4,23.33,90.6,23.33,131,0L831.16,651.1c2.87-1.66,6.54-0.67,8.2,2.2
		c1.66,2.87,0.67,6.54-2.2,8.2L644.48,772.74C622.43,785.47,597.7,791.83,572.98,791.83z" class="st0"></path>
	<path d="M1242.44,728.2c-1.02,0-2.05-0.26-2.99-0.8l-192.7-111.26c-40.39-23.32-90.58-23.32-130.97-0.02L781.16,693.8
		c-2.87,1.66-6.54,0.67-8.2-2.2c-1.66-2.87-0.67-6.54,2.2-8.2l134.61-77.67c44.1-25.44,98.88-25.44,142.97,0.02l192.7,111.26
		c2.87,1.66,3.85,5.33,2.2,8.2C1246.53,727.13,1244.51,728.2,1242.44,728.2z" class="st1"></path>
</g>
<path d="M384.67,800.85l-7.6-24.32l-19.43,16.02c-1.91,2.34-1.17,5.38,1.66,8.36c4.49,4.72,13.22,7.31,19.51,5.79
	C382.65,805.77,385.26,803.6,384.67,800.85z" class="st2"></path>
<g>
	<polygon points="1427.72,531.27 1423.17,506.15 1447.06,514.72 1451.75,539.9" class="st3"></polygon>
	<polygon points="1427.72,531.27 1451.75,539.9 1432.39,556.29 1408.36,547.67" class="st4"></polygon>
	<polygon points="1427.72,531.27 1423.17,506.15 1403.81,522.55 1408.36,547.67" class="st5"></polygon>
</g>
<circle r="12.5" cy="762.27" cx="1102.39" class="st6"></circle>
<g>
	<path d="M1045.84,273.59c0-16.28-14.3-29.48-31.93-29.48c-6.95,0-13.38,2.06-18.62,5.54
		c-6.02-11.1-18.44-18.72-32.79-18.72c-20.25,0-36.66,15.15-36.66,33.84c0,0.06,0,0.12,0.01,0.18
		c-13.62,1.49-24.19,12.18-24.19,25.16c0,12.67,10.07,23.17,23.23,25.05c-0.16,1.2-0.25,2.42-0.25,3.66
		c0,16.28,14.3,29.48,31.93,29.48c10.51,0,19.84-4.69,25.66-11.93c5.77,5.3,13.72,8.57,22.51,8.57c17.64,0,31.93-13.2,31.93-29.48
		c0-6.29-2.14-12.12-5.78-16.9C1039.86,293.34,1045.84,284.11,1045.84,273.59z" class="st7"></path>
	<path d="M984.96,267.61c-0.57-4.12,2.68-14,10.33-17.97" class="st8"></path>
	<path d="M924.88,315.16c5.75,0.5,11.5,0.07,17.27-2.26" class="st8"></path>
	<path d="M925.84,264.77c6.96,0.13,16.76,4.02,19.78,7.72" class="st8"></path>
</g>
<g>
	<circle r="189.64" cy="401.06" cx="1152.76" class="st0"></circle>
	<line y2="589.92" x2="1153.29" y1="211.42" x1="1153.29" class="st8"></line>
	<path d="M1342,413.39c-1.39,27.41-18.84,54.51-54.88,75.31c-73.67,42.53-193.48,42.31-267.61-0.48
		c-36.91-21.31-55.21-49.14-56.13-77.01" class="st8"></path>
	<path d="M1263.79,247.41c27.83,28.17,21.1,64.55-20.3,88.46c-49.69,28.69-130.51,28.54-180.51-0.33
		c-41.26-23.82-48.56-59.76-21.96-87.72" class="st8"></path>
	<path d="M1321.61,314.61c13.42,32.64-1.79,68.31-45.69,93.66c-67.51,38.98-177.31,38.78-245.25-0.44
		c-43.08-24.87-58.98-59.46-47.63-91.39" class="st8"></path>
	<path d="M1288.13,533.9c-6.55,6.43-14.6,12.82-24.15,18.34c-61.13,35.3-160.56,35.12-222.08-0.4
		c-9.37-5.41-17.31-11.32-23.84-17.59" class="st8"></path>
	<path d="M1083.62,224.42c23.2-8.55,53.28-4.33,85.69,14.38c74.13,42.8,134.23,146.45,134.23,231.52
		c0,39.29-15.43,67.1-36.53,82.12" class="st8"></path>
	<path d="M1226.61,226.23c-23.72-10.54-54.97-7.21-89.22,12.56c-74.13,42.8-134.23,146.45-134.23,231.52
		c0,40.9,15.28,69.56,37.95,84.05" class="st8"></path>
	<path d="M1152.76,230.93c-58.21,66.55-113.88,303.72-49.34,353.29" class="st8"></path>
	<path d="M1153.51,230.93c58.08,66.4,113.64,302.7,49.76,352.97" class="st8"></path>
	<path d="M1152.76,230.93c-127.29,11.91-183.15,86.46-189.57,164.88" class="st8"></path>
	<path d="M1153.83,230.93c117.14,10.96,173.79,74.97,187.08,146.23" class="st8"></path>
	<path d="M1153.51,230.93c2.88-7.04,16.31-16.96,24.24-17.87" class="st8"></path>
	<path d="M1153.29,230.93c-2.88-7.04-16.31-16.96-24.24-17.87" class="st8"></path>
</g>
<g>
	<path d="M443.54,207.14l-162.76,93.97c-13.61,7.86-22,22.39-22,38.11V721.3c0,7.57,4.02,13.74,9.7,17.14
		c2.46,1.47,19.69,11.33,19.69,11.33s-3.34-8.88,0.61-11.16l162.76-93.97c13.61-7.86,22-22.39,22-38.11V224.46c0-3.94,9-6.33,9-6.33
		s-20.25-11.71-21.49-12.21C455.66,203.72,449.29,203.82,443.54,207.14z" class="st9"></path>
	<path d="M465.46,642.96l-161.78,93.4c-6,3.46-13.5-0.87-13.5-7.79V347.43c0-9.65,5.15-18.56,13.5-23.38l161.78-93.4
		c6-3.46,13.5,0.87,13.5,7.79v381.14C478.96,629.22,473.82,638.14,465.46,642.96z" class="st10"></path>
	<path d="M461.96,217.77L299.2,311.74c-13.61,7.86-22,22.39-22,38.11v382.08c0,15.4,16.67,25.02,30,17.32l162.76-93.97
		c13.61-7.86,22-22.39,22-38.11V235.09C491.96,219.69,475.29,210.07,461.96,217.77z M478.96,619.58c0,9.65-5.15,18.56-13.5,23.38
		l-161.78,93.4c-6,3.46-13.5-0.87-13.5-7.79V347.43c0-9.65,5.15-18.56,13.5-23.38l38.84-22.43v2.66c0,7.68,5.43,10.78,12.12,6.91
		l59.84-34.55c6.7-3.87,12.12-13.23,12.12-20.91v-2.66l38.84-22.43c6-3.46,13.5,0.87,13.5,7.79v381.15H478.96z" class="st5"></path>
</g>
<g>
	<polygon points="392.35,567.97 637.77,426.28 637.77,243.19 392.35,384.88" class="st11"></polygon>
	<polygon points="392.35,384.88 637.77,243.19 637.77,201.78 392.35,343.47" class="st12"></polygon>
	<g>
		
			<ellipse ry="5.83" rx="10.09" cy="352.38" cx="412.45" class="st11" transform="matrix(0.5047 -0.8633 0.8633 0.5047 -99.9244 530.5983)"></ellipse>
		
			<ellipse ry="5.83" rx="10.09" cy="341.34" cx="432.39" class="st11" transform="matrix(0.5047 -0.8633 0.8633 0.5047 -80.5166 542.3471)"></ellipse>
		
			<ellipse ry="5.83" rx="10.09" cy="330.32" cx="452.34" class="st11" transform="matrix(0.5047 -0.8633 0.8633 0.5047 -61.1188 554.1059)"></ellipse>
	</g>
</g>
<g>
	<polygon points="179.95,757.67 347,661.22 347,508.41 179.95,604.86" class="st7"></polygon>
	<polygon points="179.95,604.86 347,508.41 347,467 179.95,563.45" class="st6"></polygon>
	<line y2="527.86" x2="312.87" y1="486.71" x1="312.87" class="st8"></line>
	<line y2="501.96" x2="339.08" y1="492.12" x1="321.82" class="st8"></line>
	<line y2="511.92" x2="321.82" y1="482.15" x1="339.08" class="st8"></line>
</g>
<g>
	<g>
		<path d="M795.17,777.35L652.75,659.18c0,0,128.43-74.32,130.39-75.31c1.49-0.75,3.39-0.62,5.45,0.57l131.29,75.8
			c4.78,2.76,8.66,10.17,8.66,16.55v18.26c0,3.61-1.24,6.12-3.19,7.11C923.85,702.93,795.17,777.35,795.17,777.35z" class="st6"></path>
		<path d="M789.7,776.79l-131.29-75.8c-4.78-2.76-8.66-10.17-8.66-16.55v-18.26c0-6.38,3.88-9.31,8.66-6.55l131.29,75.8
			c4.78,2.76,8.66,10.17,8.66,16.55v18.26C798.36,776.62,794.48,779.55,789.7,776.79z" class="st6"></path>
		<g>
			<line y2="732.1" x2="760.42" y1="757.76" x1="775.3" class="st8"></line>
			<line y2="724.47" x2="747.2" y1="750.12" x1="762.07" class="st8"></line>
			<line y2="716.84" x2="733.98" y1="742.49" x1="748.85" class="st8"></line>
			<line y2="709.2" x2="720.76" y1="734.86" x1="735.63" class="st8"></line>
			<line y2="701.57" x2="707.53" y1="727.22" x1="722.41" class="st8"></line>
			<line y2="693.94" x2="694.31" y1="719.59" x1="709.19" class="st8"></line>
			<line y2="686.3" x2="681.09" y1="711.96" x1="695.96" class="st8"></line>
			<line y2="678.67" x2="667.87" y1="704.32" x1="682.74" class="st8"></line>
		</g>
		<g>
			
				<ellipse ry="5.81" rx="10.06" cy="704.24" cx="889.28" class="st4" transform="matrix(0.5047 -0.8633 0.8633 0.5047 -167.5053 1116.5205)"></ellipse>
			
				<ellipse ry="5.81" rx="10.06" cy="691.03" cx="912.51" class="st4" transform="matrix(0.5047 -0.8633 0.8633 0.5047 -144.5939 1130.0321)"></ellipse>
			
				<ellipse ry="5.81" rx="10.06" cy="717.45" cx="866.05" class="st4" transform="matrix(0.5047 -0.8633 0.8633 0.5047 -190.4168 1103.0089)"></ellipse>
		</g>
	</g>
	<g>
		<g>
			<path d="M784.12,722.55l-103.17-59.57c-2.03-1.17-3.01-2.75-2.97-4.39c0.04-1.93,0-20.62,0-20.62l104.17-42.63
				c5.09-2.94,12.78-3.26,17.19-0.71l106.13,43.34c0,0,0.05,18.97,0.01,20.62c-0.04,1.93-1.46,3.95-4.21,5.53l-99.96,57.71
				C796.22,724.78,788.53,725.1,784.12,722.55z" class="st13"></path>
		</g>
		<g>
			<path d="M784.14,702.36L680.98,642.8c-4.4-2.54-3.85-6.98,1.23-9.92l99.95-57.7c5.09-2.94,12.78-3.26,17.18-0.71
				l103.16,59.56c4.4,2.54,3.85,6.98-1.23,9.92l-99.95,57.7C796.24,704.58,788.55,704.9,784.14,702.36z" class="st13"></path>
		</g>
	</g>
	<g>
		<path d="M795.62,716.24L652.75,598.35c0,0,128.43-74.32,130.39-75.31c1.49-0.75,3.39-0.62,5.45,0.57l131.29,75.8
			c4.78,2.76,8.66,10.17,8.66,16.55v18.26c0,3.61-1.24,6.12-3.19,7.11C923.85,642.09,795.62,716.24,795.62,716.24z" class="st6"></path>
		<path d="M789.7,715.95l-131.29-75.8c-4.78-2.76-8.66-10.17-8.66-16.55v-18.26c0-6.38,3.88-9.31,8.66-6.55l131.29,75.8
			c4.78,2.76,8.66,10.17,8.66,16.55v18.26C798.36,715.78,794.48,718.71,789.7,715.95z" class="st6"></path>
		<g>
			<line y2="671.27" x2="760.42" y1="696.92" x1="775.3" class="st8"></line>
			<line y2="663.63" x2="747.2" y1="689.29" x1="762.07" class="st8"></line>
			<line y2="656" x2="733.98" y1="681.65" x1="748.85" class="st8"></line>
			<line y2="648.37" x2="720.76" y1="674.02" x1="735.63" class="st8"></line>
			<line y2="640.73" x2="707.53" y1="666.39" x1="722.41" class="st8"></line>
			<line y2="633.1" x2="694.31" y1="658.75" x1="709.19" class="st8"></line>
			<line y2="625.47" x2="681.09" y1="651.12" x1="695.96" class="st8"></line>
			<line y2="617.83" x2="667.87" y1="643.49" x1="682.74" class="st8"></line>
		</g>
		<g>
			
				<ellipse ry="5.81" rx="10.06" cy="643.4" cx="889.27" class="st4" transform="matrix(0.5047 -0.8633 0.8633 0.5047 -114.9848 1086.3843)"></ellipse>
			
				<ellipse ry="5.81" rx="10.06" cy="630.19" cx="912.51" class="st4" transform="matrix(0.5047 -0.8633 0.8633 0.5047 -92.0734 1099.8959)"></ellipse>
			
				<ellipse ry="5.81" rx="10.06" cy="656.62" cx="866.05" class="st4" transform="matrix(0.5047 -0.8633 0.8633 0.5047 -137.8964 1072.8827)"></ellipse>
		</g>
	</g>
	<g>
		<g>
			<path d="M784.12,661.72l-103.17-59.57c-2.03-1.17-3.01-2.75-2.97-4.39c0.04-1.93,0-20.62,0-20.62l104.17-42.63
				c5.09-2.94,12.78-3.26,17.19-0.71l106.13,43.34c0,0,0.05,18.97,0.01,20.62c-0.04,1.93-1.46,3.95-4.21,5.53L801.31,661
				C796.22,663.94,788.53,664.26,784.12,661.72z" class="st13"></path>
		</g>
		<g>
			<path d="M784.14,641.52l-103.16-59.56c-4.4-2.54-3.85-6.98,1.23-9.92l99.95-57.7c5.09-2.94,12.78-3.26,17.18-0.71
				l103.16,59.56c4.4,2.54,3.85,6.98-1.23,9.92l-99.95,57.7C796.24,643.75,788.55,644.07,784.14,641.52z" class="st13"></path>
		</g>
	</g>
	<g>
		<path d="M795.62,655.41l-142.87-117.9c0,0,128.43-74.32,130.39-75.31c1.49-0.75,3.39-0.62,5.45,0.57l131.29,75.8
			c4.78,2.76,8.66,10.17,8.66,16.55v18.26c0,3.61-1.24,6.12-3.19,7.11C923.85,581.25,795.62,655.41,795.62,655.41z" class="st6"></path>
		<path d="M789.7,655.12l-131.29-75.8c-4.78-2.76-8.66-10.17-8.66-16.55v-18.26c0-6.38,3.88-9.31,8.66-6.55l131.29,75.8
			c4.78,2.76,8.66,10.17,8.66,16.55v18.26C798.36,654.95,794.48,657.88,789.7,655.12z" class="st6"></path>
		<g>
			<line y2="610.43" x2="760.42" y1="636.08" x1="775.3" class="st8"></line>
			<line y2="602.8" x2="747.2" y1="628.45" x1="762.07" class="st8"></line>
			<line y2="595.16" x2="733.98" y1="620.82" x1="748.85" class="st8"></line>
			<line y2="587.53" x2="720.76" y1="613.18" x1="735.63" class="st8"></line>
			<line y2="579.9" x2="707.53" y1="605.55" x1="722.41" class="st8"></line>
			<line y2="572.26" x2="694.31" y1="597.92" x1="709.19" class="st8"></line>
			<line y2="564.63" x2="681.09" y1="590.28" x1="695.96" class="st8"></line>
			<line y2="556.99" x2="667.87" y1="582.65" x1="682.74" class="st8"></line>
		</g>
		<g>
			
				<ellipse ry="5.81" rx="10.06" cy="582.57" cx="889.28" class="st4" transform="matrix(0.5047 -0.8633 0.8633 0.5047 -62.4642 1056.2581)"></ellipse>
			
				<ellipse ry="5.81" rx="10.06" cy="569.35" cx="912.51" class="st4" transform="matrix(0.5047 -0.8633 0.8633 0.5047 -39.5529 1069.7695)"></ellipse>
			
				<ellipse ry="5.81" rx="10.06" cy="595.78" cx="866.05" class="st4" transform="matrix(0.5047 -0.8633 0.8633 0.5047 -85.3758 1042.7465)"></ellipse>
		</g>
	</g>
</g>
<g>
	<polygon points="1286.6,801.06 1111.49,699.96 1111.49,593.81 1286.6,694.91" class="st14"></polygon>
	<polygon points="1367.79,754.12 1286.6,801.06 1286.6,694.91 1367.79,602.89" class="st14"></polygon>
	<polygon points="1192.68,501.79 1367.79,602.89 1286.6,694.91 1111.49,593.8" class="st14"></polygon>
	<g>
		<path d="M1323.01,446.26h-46.93l-6.14,177.02l0,0c-0.21,7.47,4.47,14.28,13.26,17.65c13.64,5.22,32,0.2,41.02-11.22
			c3.35-4.24,4.93-8.77,4.91-13.05l0,0L1323.01,446.26z" class="st14"></path>
		
			<ellipse ry="23.46" rx="13.55" cy="446.24" cx="1299.55" class="st15" transform="matrix(5.421953e-03 -1 1 5.421953e-03 846.2753 1743.3508)"></ellipse>
		<path d="M1323.48,459.4c0.04,3.55-2.28,7.1-6.96,9.8c-9.32,5.38-24.47,5.35-33.85-0.06c-4.67-2.7-7.02-6.22-7.06-9.74" class="st8"></path>
	</g>
	<g>
		<g>
			<path d="M1256.55,558.28v-0.08c0-0.03,0-0.07,0-0.1h-0.01l-6.6-110.57h-33.52l-6.61,115.8
				c-0.16,5.9,3.53,11.28,10.47,13.94c10.77,4.12,25.27,0.15,32.39-8.86C1255.28,565.12,1256.52,561.61,1256.55,558.28
				L1256.55,558.28z" class="st14"></path>
			
				<ellipse ry="16.76" rx="9.68" cy="447.51" cx="1233.19" class="st15" transform="matrix(5.421953e-03 -1 1 5.421953e-03 778.9958 1678.2577)"></ellipse>
		</g>
		<path d="M1250.64,459.06c0.03,2.59-1.64,5.19-5.05,7.16c-6.79,3.92-17.84,3.9-24.68-0.04
			c-3.4-1.97-5.14-4.52-5.17-7.08" class="st8"></path>
	</g>
</g>
<g>
	
		<ellipse ry="62" rx="70.16" cy="390.64" cx="1039.14" class="st16" transform="matrix(0.2875 -0.9578 0.9578 0.2875 366.2398 1273.6042)"></ellipse>
	
		<ellipse ry="6.15" rx="11.15" cy="403.57" cx="1011.19" class="st17" transform="matrix(0.3689 -0.9295 0.9295 0.3689 263.0646 1194.5736)"></ellipse>
	
		<ellipse ry="6.15" rx="11.15" cy="418.23" cx="1043.86" class="st17" transform="matrix(0.3689 -0.9295 0.9295 0.3689 270.0586 1234.1949)"></ellipse>
	<path d="M1030.86,352.48c-2.98,11.31,0.92,21.23,10.87,25.18c9.96,3.95,22.33-0.19,26.29-10.15" class="st8"></path>
</g>
<g>
	<polygon points="224.28,710.32 200.41,724.09 200.41,676.32 224.28,662.54" class="st18"></polygon>
	<polygon points="258.78,690.4 234.91,704.18 234.91,634.68 258.78,620.9" class="st18"></polygon>
	<polygon points="293.28,670.48 269.41,684.26 269.41,596.02 293.28,582.25" class="st18"></polygon>
	<polygon points="327.78,650.56 303.91,664.34 303.91,557.12 327.78,543.34" class="st18"></polygon>
</g>
<g>
	<polygon points="401.07,603.58 401.07,652.3 393.73,648.06 393.73,599.34 498.95,538.59 506.29,542.83" class="st19"></polygon>
	<g>
		<polygon points="506.29,591.55 401.07,652.3 401.07,603.58 506.29,542.83" class="st7"></polygon>
		<g>
			<path d="M428.19,612.35c-0.85-0.03-1.91,0.18-3.18,0.66l-4.65,1.77c-0.74,0.23-1.35,0.37-1.82,0.42
				c-0.48,0.05-0.83-0.06-1.05-0.32c-0.23-0.26-0.34-0.7-0.34-1.31c0-0.68,0.16-1.32,0.48-1.93s0.84-1.23,1.55-1.86
				s1.65-1.28,2.81-1.95c1.33-0.77,2.38-1.23,3.16-1.39c0.78-0.16,1.34-0.03,1.68,0.37s0.51,1.05,0.51,1.94v0.43l3.05-1.76v-0.2
				c0-1.44-0.29-2.55-0.87-3.34c-0.58-0.79-1.47-1.16-2.66-1.13c-1.2,0.04-2.73,0.59-4.59,1.67c-1.5,0.87-2.77,1.78-3.81,2.74
				c-1.04,0.96-1.88,1.93-2.52,2.91c-0.65,0.98-1.12,1.95-1.43,2.88c-0.3,0.94-0.46,1.8-0.46,2.59c0,1.2,0.23,2.06,0.7,2.59
				s1.12,0.78,1.95,0.77c0.84-0.01,1.79-0.21,2.85-0.58l4.67-1.82c1.2-0.43,2.06-0.58,2.59-0.45s0.8,0.67,0.8,1.63
				c0,0.68-0.16,1.33-0.47,1.96s-0.83,1.25-1.55,1.88c-0.72,0.62-1.69,1.29-2.91,1.99c-1.41,0.81-2.51,1.3-3.31,1.47
				s-1.37,0.06-1.71-0.32s-0.51-1.01-0.51-1.88v-0.52l-3.08,1.78v0.2c0,1.53,0.32,2.66,0.97,3.41s1.61,1.06,2.89,0.93
				c1.28-0.13,2.86-0.74,4.75-1.82c1.88-1.09,3.41-2.27,4.59-3.55c1.18-1.28,2.04-2.57,2.59-3.87s0.83-2.51,0.83-3.62
				c0-1.07-0.21-1.88-0.63-2.45C429.66,612.69,429.03,612.39,428.19,612.35z"></path>
			<polygon points="435.13,597.32 434.19,597.87 434.19,619.78 435.13,619.24 437.27,618 449.47,610.96 449.47,607.79 
				437.27,614.83 437.27,608.55 449.04,601.76 449.04,598.62 437.27,605.41 437.27,599.26 449.47,592.22 449.47,589.05 
				437.27,596.09"></polygon>
			<polygon points="467.57,591.55 467.71,595.42 467.48,595.56 465,592.9 456.45,585.01 453.14,586.92 453.14,608.84 456.22,607.06 
				456.22,594.21 456.11,590.48 456.33,590.35 458.73,592.82 467.34,600.64 470.64,598.73 470.64,576.82 467.57,578.6"></polygon>
			<path d="M492.12,569.52c-0.79-1.18-1.9-1.8-3.33-1.85s-3.15,0.49-5.15,1.65l-5.64,3.26l-2.05,1.18l-1,0.58v21.91l1-0.58
				l2.05-1.18l5.64-3.26c2-1.15,3.71-2.58,5.15-4.3c1.43-1.71,2.55-3.61,3.33-5.7c0.79-2.09,1.18-4.27,1.18-6.54
				C493.3,572.43,492.91,570.7,492.12,569.52z M489.37,581.49c-0.46,1.41-1.15,2.64-2.09,3.7s-2.15,2.01-3.63,2.87l-5.64,3.26
				v-15.57l5.64-3.26c1.48-0.86,2.69-1.3,3.63-1.33s1.64,0.39,2.09,1.26c0.46,0.87,0.68,2.25,0.68,4.15
				C490.05,578.45,489.83,580.09,489.37,581.49z"></path>
		</g>
	</g>
</g>
<g>
	<path d="M1487.17,379.3c0-11.1-9-20.1-20.1-20.1c-5.43,0-10.35,2.16-13.97,5.66c-6.79-7.07-16.33-11.47-26.9-11.47
		c-2.85,0-5.63,0.33-8.3,0.94c-8.21-11.63-21.75-19.23-37.07-19.23c-22.58,0-41.31,16.51-44.78,38.11
		c-15.76,3.77-28.32,15.77-32.9,31.2c-12,1.17-21.38,11.29-21.38,23.59c0,13.09,10.61,23.71,23.71,23.71c3.36,0,6.56-0.7,9.45-1.96
		c8.18,8,19.37,12.94,31.71,12.94c9.55,0,18.41-2.96,25.72-8c6.44,5.28,14.67,8.45,23.65,8.45c20.1,0,36.49-15.9,37.27-35.81
		c0.09-0.02,0.19-0.03,0.28-0.05c4.31,4.44,10.33,7.2,17.01,7.2c13.1,0,23.71-10.62,23.71-23.71c0-4.29-1.14-8.3-3.13-11.77
		C1480.3,397.11,1487.17,389.01,1487.17,379.3z" class="st7"></path>
	<path d="M1453.1,364.86c5.16,10.75,4.21,19.33,1.15,27.15" class="st7"></path>
	<path d="M1372.95,428.61c-6.36,6.36-4.67,17.38-0.58,26.07" class="st7"></path>
	<path d="M1306.76,413.49c-2.72,13.09-0.36,25.25,8.18,36.26" class="st7"></path>
	<path d="M1398.59,372.51c3.2-9.72,9.64-15.78,19.32-18.18" class="st7"></path>
</g>
<g>
	<path d="M1392.73,263.37l4.73,24.94l27.05-2.21c0,0-3.58,21.61-2.9,21.74c0.68,0.12,23.25,5.98,23.25,5.98
		l-16.4,18.07l19.65,21.85l-32.36,2.68l-0.89,26.51l-27.98-13.1l-19.94,12.44l-16.23-23.59l-18.23,5.64l-9.54-17.56l-23.19,5.65
		L1303,328l-25.56-4.64l23.16-15.87l-20.24-20.99l27.13-0.12l-5.11-22.49l30.3,14.91l16.33-21.12l15.89,19.36L1392.73,263.37z" class="st10"></path>
	<g>
		<g>
			<path d="M1396.64,287.93c20.57,7.8,27.37,26.07,19.57,46.64s-25.96,30.78-46.53,22.97
				c-20.57-7.8-26.17-27.02-18.37-47.59C1359.11,289.39,1376.07,280.13,1396.64,287.93z M1369.12,317.28
				c-3.39,8.94-0.95,17.29,7.99,20.68c8.94,3.39,16.79-1.06,20.18-10s0.37-17.23-8.57-20.62
				C1379.78,303.95,1372.51,308.34,1369.12,317.28z" class="st19"></path>
			<path d="M1400.78,340.95c0.57-1.2,1.84-1.9,3.16-1.74c2.07,0.26,5.38,0.93,9.08,2.68
				c6.21,2.95,10.46,10.03,6.53,18.31c-3.95,8.34-12.05,9.79-18.21,10.85c-0.76,0.13-0.87,1.18-0.15,1.47l7.47,3.01
				c1.65,0.66,2.39,2.58,1.63,4.18l-1.86,3.92c-0.73,1.54-2.57,2.19-4.1,1.46l-18.76-8.9c-1.47-0.7-2.14-2.41-1.55-3.92l2.37-5.99
				c0.46-1.17,1.6-1.95,2.86-1.95c4.52,0.01,15.07-0.55,17.62-5.93c1.67-3.52,0.22-5.81-2.54-7.12c-1.38-0.65-2.68-1.08-3.8-1.36
				c-1.86-0.47-2.79-2.56-1.97-4.29L1400.78,340.95z" class="st19"></path>
			<path d="M1341.45,326.72c3.2,0.64,6.31,1.01,8.81,1.22c2.88,0.25,4.85,3.02,4.1,5.81l-2.72,10.14
				c-0.58,2.14-2.58,3.57-4.79,3.41c-2.21-0.16-5.56-0.58-10.5-1.56c-10.28-2.04-35.2-9.66-28.7-43.08
				c7.27-37.28,32.96-32.18,44.52-29.89c4.09,0.81,7.07,1.68,9.1,2.38c2.06,0.72,3.32,2.79,3.04,4.95l-1.35,10.37
				c-0.37,2.87-3.25,4.67-6,3.8c-2.39-0.76-5.41-1.6-8.61-2.24c-8.99-1.78-16.69,3.36-18.99,14.93
				C1327.05,318.52,1332.46,324.93,1341.45,326.72z" class="st19"></path>
		</g>
		<g>
			<path d="M1392.05,289.84c20.57,7.8,27.37,26.07,19.57,46.64c-7.8,20.57-25.96,30.78-46.53,22.97
				c-20.57-7.8-26.17-27.02-18.37-47.59C1354.52,291.29,1371.47,282.04,1392.05,289.84z M1364.53,319.18
				c-3.39,8.94-0.95,17.29,7.99,20.68c8.94,3.39,16.79-1.06,20.18-10s0.37-17.23-8.57-20.62
				C1375.19,305.86,1367.92,310.24,1364.53,319.18z" class="st20"></path>
			<path d="M1396.05,342.48c0.57-1.2,1.84-1.9,3.16-1.74c2.07,0.26,5.38,0.93,9.08,2.68
				c6.21,2.95,10.46,10.03,6.53,18.31c-3.95,8.34-12.05,9.79-18.21,10.85c-0.76,0.13-0.87,1.18-0.15,1.47l7.47,3.01
				c1.65,0.66,2.39,2.58,1.63,4.18l-1.86,3.92c-0.73,1.54-2.57,2.19-4.1,1.46l-18.76-8.9c-1.47-0.7-2.14-2.41-1.55-3.92l2.37-5.99
				c0.46-1.17,1.6-1.95,2.86-1.95c4.52,0.01,15.07-0.55,17.62-5.93c1.67-3.52,0.22-5.81-2.54-7.12c-1.38-0.65-2.68-1.08-3.8-1.36
				c-1.86-0.47-2.79-2.56-1.97-4.29L1396.05,342.48z" class="st20"></path>
			<path d="M1337.23,329.36c3.2,0.64,6.31,1.01,8.81,1.22c2.88,0.25,4.85,3.02,4.1,5.81l-2.72,10.14
				c-0.58,2.14-2.58,3.57-4.79,3.41c-2.21-0.16-5.56-0.58-10.5-1.56c-10.28-2.04-35.2-9.66-28.7-43.08
				c7.27-37.28,32.96-32.18,44.52-29.89c4.09,0.81,7.07,1.68,9.1,2.38c2.06,0.72,3.32,2.79,3.04,4.95l-1.35,10.37
				c-0.37,2.87-3.25,4.67-6,3.8c-2.39-0.76-5.41-1.6-8.61-2.24c-8.99-1.78-16.69,3.36-18.99,14.93
				C1322.84,321.16,1328.24,327.57,1337.23,329.36z" class="st20"></path>
		</g>
	</g>
</g>
<g>
	<path d="M1188.44,434.22c4.86,9.23,16.08,15.08,28.5,13.87c15.75-1.54,27.44-13.86,26.11-27.53
		c-0.13-1.37-0.4-2.7-0.77-3.99c4.34-4.98,6.7-11.66,6.01-18.75c-1.2-12.34-11.23-21.69-23.23-22.41c1.73-4.2,2.49-8.86,2.01-13.7
		c-1.54-15.79-15.59-27.34-31.38-25.8c-9.33,0.91-17.17,6.19-21.72,13.61c-4.63-4.62-11.22-7.22-18.24-6.53
		c-12.47,1.22-21.59,12.31-20.38,24.78c0.8,8.19,5.86,14.94,12.78,18.26c-10.75,2.66-18.21,12.87-17.1,24.22
		c1.07,10.95,9.76,19.32,20.3,20.37c1.52,9.04,10.64,15.42,20.93,14.41C1179.65,444.32,1185.7,439.99,1188.44,434.22z" class="st7"></path>
	<g>
		<path d="M1184.48,415.13c3.04,2.74,5.06,6.42,5.47,10.6c0.29,2.99-0.27,5.88-1.51,8.48" class="st7"></path>
		<path d="M1205.7,382.9c3.96-4.07,9.32-6.82,15.42-7.42c1.33-0.13,2.65-0.15,3.94-0.07" class="st7"></path>
		<path d="M1226.89,412.41c6.29-4.72,14.09,0.29,15.39,4.16" class="st7"></path>
	</g>
	<path d="M1151.34,430.62c-1.14-5.75-0.5-10.8,4.19-14.24" class="st8"></path>
	<path d="M1173.97,349.52c-2.66,4.07-3.06,15.41,0.52,19.26" class="st8"></path>
</g>
<g>
	<polygon points="166.33,473.45 155.41,444.03 134.5,455.37 124.27,449.47 181.67,395.38 191.9,401.29 176.56,479.36" class="st19"></polygon>
	<polygon points="176.56,479.36 165.64,449.93 134.5,455.37 191.9,401.29" class="st21"></polygon>
</g>
<path d="M570.42,498.4l2.28-8.45l2.28,8.45c1.38,5.11,5.37,9.1,10.47,10.47l8.45,2.28l-8.45,2.28
	c-5.11,1.38-9.1,5.37-10.47,10.47l-2.28,8.45l-2.28-8.45c-1.38-5.11-5.37-9.1-10.47-10.47l-8.45-2.28l8.45-2.28
	C565.06,507.5,569.05,503.51,570.42,498.4z" class="st3"></path>
<path d="M224.84,262.66l20.21-7.85l-20.21,15.49c-4.7,3.6-8.39,9.96-9.16,15.8l-3.33,25.11l-3.33-21.26
	c-0.77-4.95-4.46-7.05-9.16-5.22l-20.21,7.85l20.21-15.49c4.7-3.6,8.39-9.96,9.16-15.8l3.33-25.11l3.33,21.26
	C216.45,262.39,220.13,264.49,224.84,262.66z" class="st18"></path>
<g>
	<path d="M1193.57,669.66c-26.61-15.36-48.19-1.04-48.19,29.5l96.37,55.64
		C1241.76,724.26,1220.19,685.02,1193.57,669.66z" class="st5"></path>
	<g>
		<g>
			<line y2="727.36" x2="1232.3" y1="726.57" x1="1224.56" class="st8"></line>
			<line y2="706.51" x2="1223.2" y1="709.89" x1="1217.29" class="st8"></line>
			<line y2="688.24" x2="1209.61" y1="695.26" x1="1206.41" class="st8"></line>
			<line y2="675.34" x2="1193.57" y1="684.93" x1="1193.57" class="st8"></line>
			<line y2="669.72" x2="1177.54" y1="680.44" x1="1180.74" class="st8"></line>
			<line y2="672.31" x2="1163.95" y1="682.13" x1="1169.64" class="st8"></line>
			<line y2="682.64" x2="1154.85" y1="690.79" x1="1162.59" class="st8"></line>
		</g>
	</g>
	<line y2="702.14" x2="1160.05" y1="697.32" x1="1151.69" class="st8"></line>
	<line y2="745.68" x2="1235.46" y1="740.86" x1="1227.1" class="st8"></line>
	<polygon points="1199.3,729.98 1194.08,719.29 1223.83,716.01" class="st2"></polygon>
	<path d="M1193.57,716.25c-5.16-2.98-9.35-0.59-9.35,5.33l18.69,10.79C1202.92,726.45,1198.74,719.23,1193.57,716.25z" class="st22"></path>
</g>
<g>
	<g>
		<g>
			<path d="M749.87,531.26L749.87,531.26c0.01,0.05,0,0.1,0,0.15V531.26z" class="st23"></path>
			<path d="M749.87,541.2v-9.63c0.01,5.4,3.57,10.79,10.69,14.9c14.31,8.26,37.6,8.22,52-0.09
				c7.17-4.14,10.79-9.55,10.85-14.96v9.63c0,0.05,0,0.1,0,0.15v0.15h-0.01c-0.12,5.36-3.74,10.71-10.84,14.81
				c-14.4,8.32-37.69,8.36-52,0.09C753.37,552.11,749.81,546.65,749.87,541.2z" class="st13"></path>
		</g>
		
			<ellipse ry="21.23" rx="36.77" cy="531.43" cx="786.65" class="st24" transform="matrix(1 -5.421953e-03 5.421953e-03 1 -2.8698 4.273)"></ellipse>
	</g>
	<g>
		<path d="M756.81,530.32L756.81,530.32v-21.99c0-16.48,13.36-29.83,29.83-29.83c16.48,0,29.83,13.36,29.83,29.83v21.91
			c0,0.02,0,0.04,0,0.06v0.03l0,0c-0.05,4.39-2.98,8.78-8.8,12.14c-11.69,6.75-30.58,6.78-42.19,0.08
			C759.64,539.17,756.76,534.75,756.81,530.32z" class="st4"></path>
	</g>
	<path d="M786.64,484.56c12.62,0,22.84,10.23,22.84,22.84" class="st25"></path>
</g>
<path d="M912.41,437.63l-7.6-24.32l-19.43,16.02c-1.91,2.34-1.17,5.38,1.66,8.36c4.49,4.72,13.22,7.31,19.51,5.79
	C910.4,442.55,913.01,440.38,912.41,437.63z" class="st2"></path>
<g>
	<polygon points="544.94,694.92 523.55,692.09 536.61,675.08 558.09,677.8" class="st3"></polygon>
	<polygon points="544.94,694.92 558.09,677.8 566.29,697.62 553.14,714.73" class="st4"></polygon>
	<polygon points="544.94,694.92 523.55,692.09 531.75,711.91 553.14,714.73" class="st5"></polygon>
</g>
<g>
	<g>
		<path d="M578.1,377.12c0.2,6-0.3,11.92-0.54,16.94c0,5.47,4.44,9.91,9.91,9.91s9.91-4.44,9.91-9.91
			c-0.31-11.36-0.46-18.71,0-27.28L578.1,377.12z" class="st3"></path>
		<path d="M593.79,373.88l4.09-1.8c3.61-1.83,6.21-5.12,6.21-9.31c0-5.57-4.52-10.09-10.09-10.09
			c-2.13,0-4.1,0.66-5.72,1.79c-11.91,8.46-27.18,16.9-43.78,25.33c-3.12,1.71-5.24,5.03-5.24,8.85c0,5.57,4.52,10.09,10.09,10.09
			c2.48,0,4.41-0.9,6.51-2.39c7.91-5.41,16.37-10.2,25.22-14.58" class="st3"></path>
		<path d="M563.27,378.44c2.94-12.25,7.52-25.28,13.29-38.88c1.61-4.51,1.38-7.93-1.36-11.11
			c-3.63-4.23-10.28-5.09-14.5-1.46c-1.61,1.39-2.79,3.47-3.52,5.42c0,0-3.3,13.27-8.15,26.99c-4.85,13.72-9.5,26.87-9.5,26.87" class="st3"></path>
		<path d="M597.39,359.13c-0.09-2.1,0.17-7.96,0.17-7.96c0-5.47-4.44-9.91-9.91-9.91s-9.91,4.44-9.91,9.91
			c0,0,0.5,3.95,0.5,7.41s-0.19,9.4-0.19,9.4" class="st3"></path>
	</g>
	<g>
		<path d="M536.69,367.06c-5.48-4.06-12.59-3.57-21.22,1.42c-8.63,4.98-15.74,12.7-21.22,23.09
			c-5.48,10.39-8.22,21.41-8.22,33.17c0,11.77,2.74,19.62,8.22,23.68s12.59,3.57,21.22-1.42c8.63-4.98,15.74-12.7,21.22-23.09
			c5.48-10.39,8.22-21.41,8.22-33.17C544.92,378.97,542.18,371.12,536.69,367.06z M516.93,419.24c-5.71,3.3-10.35,0.66-10.35-5.9
			s4.63-14.55,10.35-17.84c5.71-3.3,10.35-0.66,10.35,5.9C527.28,407.95,522.64,415.94,516.93,419.24z" class="st3"></path>
		<path d="M513.94,397.73c4.2-4.35,9.64-6.2,14.69-5.51" class="st8"></path>
		<path d="M506.95,416.26c0.52,2.64,4.21,6.43,7.85,7.86" class="st8"></path>
	</g>
	<g>
		<path d="M464.88,443.82c0.2,6-0.3,11.92-0.54,16.94c0,5.47,4.44,9.91,9.91,9.91s9.91-4.44,9.91-9.91
			c-0.31-11.36-0.46-18.71,0-27.28L464.88,443.82z" class="st3"></path>
		<path d="M480.57,440.58l4.09-1.8c3.61-1.83,6.21-5.12,6.21-9.31c0-5.57-4.52-10.09-10.09-10.09
			c-2.13,0-4.1,0.66-5.72,1.79c-11.91,8.46-27.18,16.9-43.78,25.33c-3.12,1.71-5.24,5.03-5.24,8.85c0,5.57,4.52,10.09,10.09,10.09
			c2.48,0,4.41-0.9,6.51-2.39c7.91-5.41,16.37-10.2,25.22-14.58" class="st3"></path>
		<path d="M450.05,445.14c2.94-12.25,7.52-25.28,13.29-38.88c1.61-4.51,1.38-7.93-1.36-11.11
			c-3.63-4.23-10.28-5.09-14.5-1.46c-1.61,1.39-2.79,3.47-3.52,5.42c0,0-3.3,13.27-8.15,26.99s-9.5,26.87-9.5,26.87" class="st3"></path>
		<path d="M484.17,425.82c-0.09-2.1,0.17-7.96,0.17-7.96c0-5.47-4.44-9.91-9.91-9.91s-9.91,4.44-9.91,9.91
			c0,0,0.5,3.95,0.5,7.41s-0.19,9.4-0.19,9.4" class="st3"></path>
	</g>
	<path d="M593.14,353.24c0.03-0.94,0.06-1.71,0.06-1.71c0-3.16-2.56-5.73-5.73-5.73" class="st26"></path>
	<path d="M571.8,338.76c1.23-3.46,1.06-6.07-1.04-8.51" class="st26"></path>
	<path d="M588.91,399.52c2.49-1.05,4.24-3.52,4.24-6.39c-0.03-0.99-0.05-1.93-0.08-2.84" class="st26"></path>
	<path d="M480.09,419.74c0.03-0.94,0.06-1.71,0.06-1.71c0-3.16-2.56-5.73-5.73-5.73" class="st26"></path>
	<path d="M459.49,405.25c1.23-3.46,1.06-6.07-1.04-8.51" class="st26"></path>
	<path d="M475.91,466.36c2.49-1.05,4.24-3.52,4.24-6.39c-0.03-0.99-0.05-1.93-0.08-2.84" class="st26"></path>
	<path d="M538.8,375.7c-0.95-2.39-2.3-4.22-4.04-5.51c-0.93-0.69-1.92-1.19-2.98-1.5" class="st26"></path>
	<path d="M540.52,386.8c0-1.73-0.08-3.34-0.25-4.83" class="st26"></path>
	<path d="M510.08,444.67c1.23-0.49,2.5-1.11,3.82-1.87c1.98-1.14,3.85-2.47,5.62-3.99" class="st26"></path>
</g>
</svg>
